<?xml version="1.0" encoding="utf-8"?>
<!-- Generator: Adobe Illustrator 28.2.0, SVG Export Plug-In . SVG Version: 6.00 Build 0)  -->
<svg version="1.1" id="Camada_1" xmlns="http://www.w3.org/2000/svg" xmlns:xlink="http://www.w3.org/1999/xlink" x="0px" y="0px"
	 viewBox="0 0 47.49 7.48" style="enable-background:new 0 0 47.49 7.48;" xml:space="preserve">
<style type="text/css">
	.st0{fill:#FFFFFF;}
	.st1{fill:#33B192;}
	.st2{fill:#33B292;}
</style>
<g>
	<path class="st0" d="M34.72,4.72c-0.71,0-1.39,0-2.09,0c0-0.49,0-0.97,0-1.46c1.4,0,2.79,0,4.19,0c0.27,1.51-0.63,3.68-2.96,4.14
		c-2.22,0.44-4.17-0.87-4.59-3.08c-0.37-1.93,0.98-3.86,2.95-4.24c1.98-0.37,4.08,0.79,4.39,2.45c-0.67,0-1.33,0-2,0
		c-0.74-0.9-1.51-1.14-2.39-0.73c-0.9,0.41-1.3,1.31-1.1,2.43c0.16,0.91,0.85,1.55,1.76,1.62C33.77,5.92,34.42,5.54,34.72,4.72z"/>
	<path class="st0" d="M26.5,0.15c0.57,0,1.12,0,1.69,0c0,2.39,0,4.76,0,7.16c-0.52,0-1.04,0-1.58,0c-0.88-1.41-1.77-2.83-2.7-4.32
		c0,1.48,0,2.88,0,4.32c-0.57,0-1.14,0-1.73,0c0-2.37,0-4.75,0-7.15c0.52,0,1.04,0,1.58,0c0.9,1.46,1.8,2.93,2.74,4.46
		C26.5,3.09,26.5,1.63,26.5,0.15z"/>
	<path class="st0" d="M42.21,5.21c0.61,0,1.21,0,1.84,0c0.14,0.46,0.47,0.69,0.99,0.63c0.35-0.05,0.58-0.29,0.62-0.65
		c0.04-0.36-0.08-0.64-0.45-0.78c-0.36-0.14-0.75-0.03-1.13-0.09c0-0.45,0-0.87,0-1.31c0.25-0.04,0.5-0.04,0.74-0.11
		c0.37-0.11,0.54-0.5,0.42-0.89c-0.1-0.32-0.32-0.43-0.64-0.36c-0.3,0.06-0.35,0.31-0.4,0.59c-0.31,0-0.61,0-0.91,0
		c-0.28,0-0.57,0-0.85,0c-0.08-1.19,0.85-2.15,2.12-2.23c0.63-0.04,1.22,0.06,1.75,0.43c1,0.71,1.09,2.29,0.04,2.93
		c-0.04,0.03-0.1,0.04-0.09,0.11c0.01,0.02,0.03,0.05,0.04,0.05c1.54,0.53,1.47,2.45,0.4,3.31C45.73,7.62,44.19,7.69,43.15,7
		C42.52,6.57,42.28,5.95,42.21,5.21z"/>
	<path class="st1" d="M3.22,7.32c-0.64,0-1.22,0-1.86,0c0-1.85,0-3.69,0-5.56c-0.48,0-0.9,0-1.36,0c0-0.54,0-1.04,0-1.58
		c1.52,0,3.04,0,4.59,0c0,0.5,0,1.01,0,1.53C4.15,1.8,3.69,1.7,3.22,1.77C3.22,3.61,3.22,5.44,3.22,7.32z"/>
	<path class="st0" d="M37.91,7.29c0-2.37,0-4.72,0-7.1c0.59,0,1.18,0,1.79,0c0,1.82,0,3.63,0,5.48c0.71,0,1.38,0,2.08,0
		c0,0.56,0,1.07,0,1.61C40.51,7.29,39.22,7.29,37.91,7.29z"/>
	<path class="st2" d="M13.48,7.32c-0.6,0-1.17,0-1.77,0c0-2.38,0-4.75,0-7.15c0.59,0,1.17,0,1.77,0
		C13.48,2.54,13.48,4.91,13.48,7.32z"/>
	<path class="st2" d="M8.95,4.91c0.63,0.8,1.25,1.57,1.89,2.39c-0.72,0-1.38,0-2.1,0c-0.5-0.7-1.03-1.43-1.62-2.27
		c0,0.83,0,1.54,0,2.28c-0.62,0-1.18,0-1.77,0c0-2.38,0-4.75,0-7.17c1.16,0.03,2.31-0.09,3.45,0.08c1.03,0.15,1.6,0.82,1.83,1.8
		c0.28,1.14-0.26,2.32-1.24,2.73C9.26,4.81,9.12,4.85,8.95,4.91z M8.8,3.27c0.23-0.36,0.24-0.77-0.03-1.1
		c-0.43-0.54-1.04-0.42-1.64-0.4c0,0.67,0,1.31,0,2C7.76,3.74,8.4,3.89,8.8,3.27z"/>
	<path class="st0" d="M14.25,7.32c0.96-2.41,1.91-4.79,2.87-7.17c0.5,0,0.97,0,1.47,0c0.94,2.38,1.88,4.76,2.84,7.17
		C19.01,7.32,16.66,7.32,14.25,7.32z M16.38,6.12c0.93,0,1.81,0,2.73,0c-0.41-1.24-0.82-2.45-1.26-3.78
		C17.34,3.66,16.86,4.88,16.38,6.12z"/>
</g>
</svg>
